<?xml version="1.0" encoding="UTF-8"?>
<!DOCTYPE svg PUBLIC "-//W3C//DTD SVG 1.1//EN" "http://www.w3.org/Graphics/SVG/1.1/DTD/svg11.dtd">
<!-- Creator: CorelDRAW -->
<svg xmlns="http://www.w3.org/2000/svg" xml:space="preserve" width="855px" height="233px" version="1.1" style="shape-rendering:geometricPrecision; text-rendering:geometricPrecision; image-rendering:optimizeQuality; fill-rule:evenodd; clip-rule:evenodd"
viewBox="0 0 90.24 24.54"
 xmlns:xlink="http://www.w3.org/1999/xlink"
 xmlns:xodm="http://www.corel.com/coreldraw/odm/2003">
 <defs>
  <style type="text/css">
   <![CDATA[
    .fil0 {fill:black;fill-rule:nonzero}
    .fil2 {fill:url(#id0);fill-rule:nonzero}
    .fil1 {fill:url(#id1);fill-rule:nonzero}
   ]]>
  </style>
  <linearGradient id="id0" gradientUnits="userSpaceOnUse" x1="7.81" y1="11.71" x2="14.5" y2="11.71">
   <stop offset="0" style="stop-opacity:1; stop-color:#FF0743"/>
   <stop offset="0.501961" style="stop-opacity:1; stop-color:#FE053B"/>
   <stop offset="0.760784" style="stop-opacity:1; stop-color:#FD604C"/>
   <stop offset="1" style="stop-opacity:1; stop-color:#FF3B49"/>
  </linearGradient>
  <linearGradient id="id1" gradientUnits="userSpaceOnUse" xlink:href="#id0" x1="0" y1="12.27" x2="22.31" y2="12.27">
  </linearGradient>
 </defs>
 <g id="Katman_x0020_1">
  <metadata id="CorelCorpID_0Corel-Layer"/>
  <g id="_105553313266080">
   <g>
    <path class="fil0" d="M33.48 18.26c-0.99,0 -1.84,-0.17 -2.54,-0.51 -0.7,-0.34 -1.34,-0.85 -1.91,-1.52l1.57 -1.57c0.37,0.48 0.79,0.84 1.26,1.1 0.48,0.27 1.06,0.4 1.74,0.4 0.63,0 1.12,-0.12 1.48,-0.37 0.37,-0.25 0.55,-0.58 0.55,-1.02 0,-0.36 -0.11,-0.67 -0.32,-0.9 -0.21,-0.24 -0.48,-0.43 -0.83,-0.59 -0.34,-0.16 -0.72,-0.31 -1.13,-0.45 -0.42,-0.13 -0.83,-0.29 -1.24,-0.46 -0.41,-0.18 -0.79,-0.4 -1.13,-0.66 -0.35,-0.27 -0.62,-0.6 -0.83,-1.02 -0.21,-0.41 -0.32,-0.93 -0.32,-1.55 0,-0.75 0.18,-1.38 0.54,-1.9 0.37,-0.53 0.86,-0.93 1.49,-1.21 0.63,-0.28 1.34,-0.42 2.14,-0.42 0.83,0 1.59,0.16 2.26,0.47 0.68,0.31 1.23,0.72 1.66,1.22l-1.57 1.57c-0.36,-0.39 -0.73,-0.68 -1.11,-0.87 -0.38,-0.19 -0.81,-0.29 -1.29,-0.29 -0.54,0 -0.97,0.11 -1.28,0.32 -0.32,0.22 -0.47,0.52 -0.47,0.91 0,0.34 0.1,0.61 0.31,0.82 0.21,0.21 0.49,0.39 0.83,0.54 0.35,0.15 0.73,0.3 1.14,0.43 0.41,0.14 0.82,0.3 1.24,0.48 0.41,0.18 0.79,0.41 1.13,0.69 0.34,0.28 0.62,0.64 0.83,1.07 0.21,0.43 0.31,0.98 0.31,1.62 0,1.14 -0.4,2.04 -1.21,2.69 -0.8,0.65 -1.91,0.98 -3.3,0.98zm44.91 -8.42l0 0.01c0.13,0.05 0.26,0.12 0.38,0.19 0.68,0.38 1.22,0.9 1.62,1.57 0.4,0.66 0.6,1.4 0.6,2.23 0,0.83 -0.2,1.58 -0.6,2.24 -0.4,0.67 -0.94,1.2 -1.62,1.59 -0.68,0.39 -1.45,0.59 -2.3,0.59 -0.85,0 -1.62,-0.2 -2.3,-0.59 -0.68,-0.39 -1.22,-0.92 -1.62,-1.59 -0.4,-0.66 -0.6,-1.41 -0.6,-2.24 0,-0.83 0.2,-1.57 0.6,-2.23 0.39,-0.65 0.94,-1.18 1.62,-1.57 0.68,-0.39 1.45,-0.58 2.29,-0.58 0.16,0 0.31,0 0.47,0.02l0.01 -0.03c0.52,0.05 1,0.19 1.45,0.39zm-1.07 1.91c-0.38,0.72 -0.57,1.26 -0.57,1.77 0,0.61 0.27,1.26 0.8,2.2l0.06 0.1c0.33,-0.19 0.58,-0.45 0.76,-0.79 0.18,-0.35 0.27,-0.74 0.27,-1.19 0,-0.44 -0.09,-0.83 -0.28,-1.16 -0.19,-0.34 -0.44,-0.6 -0.77,-0.8 -0.08,-0.05 -0.17,-0.09 -0.27,-0.13zm-1.23 4.34c-0.53,-0.99 -0.8,-1.76 -0.8,-2.57 0,-0.59 0.14,-1.15 0.43,-1.81 -0.13,0.05 -0.26,0.11 -0.38,0.18 -0.33,0.19 -0.58,0.45 -0.77,0.79 -0.18,0.34 -0.27,0.73 -0.27,1.17 0,0.44 0.09,0.83 0.27,1.18 0.19,0.34 0.44,0.61 0.77,0.8 0.23,0.14 0.48,0.22 0.75,0.26zm-32.51 2.17c-0.88,0 -1.67,-0.19 -2.36,-0.57 -0.69,-0.38 -1.24,-0.9 -1.64,-1.57 -0.39,-0.67 -0.6,-1.42 -0.6,-2.26 0,-0.84 0.2,-1.59 0.59,-2.25 0.39,-0.67 0.93,-1.19 1.6,-1.57 0.67,-0.39 1.43,-0.58 2.26,-0.58 0.81,0 1.52,0.18 2.14,0.54 0.62,0.36 1.11,0.86 1.47,1.49 0.35,0.64 0.53,1.36 0.53,2.18 0,0.14 -0.01,0.3 -0.03,0.45 -0.01,0.16 -0.04,0.34 -0.08,0.53l-7.1 0.01 0 -1.7 6.03 -0.01 -0.93 0.7c-0.02,-0.5 -0.11,-0.92 -0.27,-1.25 -0.16,-0.34 -0.38,-0.6 -0.68,-0.77 -0.29,-0.18 -0.66,-0.27 -1.09,-0.27 -0.46,0 -0.85,0.1 -1.19,0.3 -0.33,0.2 -0.59,0.49 -0.77,0.85 -0.18,0.37 -0.27,0.8 -0.27,1.31 0,0.52 0.09,0.96 0.29,1.34 0.19,0.37 0.47,0.66 0.82,0.87 0.36,0.2 0.78,0.3 1.26,0.3 0.43,0 0.82,-0.07 1.17,-0.22 0.35,-0.15 0.65,-0.37 0.91,-0.66l1.34 1.35c-0.41,0.48 -0.91,0.85 -1.5,1.09 -0.59,0.25 -1.22,0.37 -1.9,0.37zm11.08 -0.18l0 -4.84c0,-0.5 -0.16,-0.91 -0.48,-1.23 -0.31,-0.31 -0.71,-0.47 -1.2,-0.47 -0.33,0 -0.63,0.07 -0.88,0.21 -0.26,0.15 -0.46,0.35 -0.61,0.6 -0.14,0.26 -0.21,0.56 -0.21,0.89l-0.9 -0.46c0,-0.66 0.15,-1.23 0.43,-1.73 0.29,-0.49 0.69,-0.88 1.19,-1.16 0.51,-0.28 1.08,-0.42 1.72,-0.42 0.62,0 1.17,0.15 1.66,0.46 0.49,0.31 0.87,0.71 1.15,1.21 0.28,0.49 0.42,1.03 0.42,1.59l0 5.35 -2.29 0zm-5.68 0l0 -8.44 2.3 0 0 8.44 -2.3 0zm10.94 0l0 -11.94 2.3 0 0 11.94 -2.3 0zm-1.96 -6.43l0 -2.01 6.22 0 0 2.01 -6.22 0zm7.51 6.43l0 -8.44 2.29 0 0 8.44 -2.29 0zm2.29 -4.66l-0.89 -0.61c0.11,-1.02 0.42,-1.84 0.92,-2.44 0.5,-0.6 1.22,-0.9 2.15,-0.9 0.42,0 0.78,0.06 1.11,0.2 0.32,0.14 0.62,0.35 0.88,0.65l-1.42 1.65c-0.14,-0.14 -0.3,-0.25 -0.47,-0.32 -0.18,-0.07 -0.39,-0.1 -0.63,-0.1 -0.49,0 -0.88,0.15 -1.19,0.46 -0.3,0.3 -0.46,0.77 -0.46,1.41zm17.09 4.72l-3.53 -8.5 2.49 0 2.33 6.49 -0.83 0 2.43 -6.49 2.5 0 -3.76 8.5 -1.63 0zm-2.34 3.47l2.58 -5.43 1.39 1.96 -1.53 3.47 -2.44 0z"/>
   </g>
   <g>
    <path class="fil1" d="M18.13 3.78c-1,-0.5 -2.11,-0.89 -3.29,-1.15 -1.15,-0.26 -2.39,-0.4 -3.69,-0.4 -1.3,0 -2.54,0.14 -3.69,0.4 -1.16,0.26 -2.26,0.64 -3.25,1.13l-0.09 0.04c-0.82,0.41 -1.23,0.63 -1.56,1.15 -0.16,0.26 -0.24,0.52 -0.28,0.85 -0.05,0.39 -0.05,0.96 -0.05,1.73l0 3.89c0,2.85 1.15,5.08 2.62,6.76 1.52,1.73 3.4,2.91 4.78,3.62 0.36,0.19 0.63,0.33 0.87,0.41 0.19,0.06 0.38,0.1 0.65,0.1 0.55,0 0.88,-0.17 1.53,-0.51 1.38,-0.71 3.26,-1.89 4.78,-3.62 1.47,-1.68 2.62,-3.91 2.62,-6.76l0 -3.89c0,-1.36 0,-2.05 -0.33,-2.58 -0.34,-0.53 -0.76,-0.75 -1.61,-1.17l-0.01 0zm-2.81 -3.32c1.37,0.3 2.63,0.74 3.77,1.3l0.09 0.05c1.19,0.59 1.79,0.9 2.46,1.97 0.67,1.09 0.67,1.97 0.67,3.75l0 3.89c0,3.48 -1.39,6.19 -3.18,8.23 -1.75,1.99 -3.87,3.33 -5.43,4.13 -0.98,0.51 -1.47,0.76 -2.55,0.76 -0.53,0 -0.95,-0.08 -1.37,-0.22 -0.37,-0.13 -0.72,-0.3 -1.17,-0.54 -1.56,-0.8 -3.68,-2.14 -5.43,-4.13 -1.79,-2.04 -3.18,-4.75 -3.18,-8.23l0 -3.89c0,-0.81 0,-1.41 0.08,-2.01 0.08,-0.65 0.25,-1.19 0.59,-1.74 0.67,-1.08 1.28,-1.39 2.49,-1.99l0.01 0c1.15,-0.57 2.43,-1.03 3.81,-1.33 1.33,-0.3 2.73,-0.46 4.17,-0.46 1.44,0 2.85,0.16 4.17,0.46z"/>
    <path class="fil2" d="M11.15 10.04c0.31,0 0.59,-0.13 0.79,-0.33 0.2,-0.2 0.33,-0.48 0.33,-0.79 0,-0.31 -0.12,-0.59 -0.32,-0.79l-0.01 0c-0.2,-0.2 -0.48,-0.32 -0.79,-0.32 -0.3,0 -0.58,0.12 -0.78,0.32l-0.05 0.05c-0.17,0.19 -0.28,0.45 -0.28,0.74 0,0.31 0.12,0.59 0.32,0.79l0.01 0.01c0.19,0.19 0.47,0.32 0.78,0.32zm2.37 1.25c-0.35,0.35 -0.78,0.62 -1.25,0.79l0 0.75 0.56 0c0.61,0 1.11,0.5 1.11,1.11 0,0.62 -0.5,1.12 -1.11,1.12l-0.56 0 0 0.55 1.11 0c0.62,0 1.12,0.5 1.12,1.12 0,0.62 -0.5,1.12 -1.12,1.12l-1.11 0c-0.61,0 -1.17,-0.25 -1.57,-0.66l-0.01 0c-0.4,-0.41 -0.65,-0.97 -0.65,-1.57l0 -3.54c-0.47,-0.17 -0.9,-0.44 -1.24,-0.79l-0.01 0c-0.61,-0.61 -0.98,-1.45 -0.98,-2.37 0,-0.88 0.34,-1.68 0.91,-2.28l0.07 -0.08c0.6,-0.61 1.44,-0.98 2.36,-0.98 0.92,0 1.76,0.37 2.36,0.97l0.01 0.01c0.61,0.61 0.98,1.44 0.98,2.36 0,0.93 -0.37,1.76 -0.98,2.37z"/>
   </g>
  </g>
 </g>
</svg>
