<?xml version="1.0" encoding="UTF-8"?>
<!DOCTYPE svg PUBLIC "-//W3C//DTD SVG 1.1//EN" "http://www.w3.org/Graphics/SVG/1.1/DTD/svg11.dtd">
<!-- Creator: CorelDRAW -->
<svg xmlns="http://www.w3.org/2000/svg" xml:space="preserve" width="554px" height="562px" version="1.1" style="shape-rendering:geometricPrecision; text-rendering:geometricPrecision; image-rendering:optimizeQuality; fill-rule:evenodd; clip-rule:evenodd"
viewBox="0 0 101.61 103.08"
 xmlns:xlink="http://www.w3.org/1999/xlink"
 xmlns:xodm="http://www.corel.com/coreldraw/odm/2003">
 <defs>
  <style type="text/css">
   <![CDATA[
    .fil0 {fill:white;fill-rule:nonzero}
    .fil2 {fill:url(#id0);fill-rule:nonzero}
    .fil1 {fill:url(#id1);fill-rule:nonzero}
   ]]>
  </style>
  <linearGradient id="id0" gradientUnits="userSpaceOnUse" x1="41.75" y1="31.68" x2="59.85" y2="31.68">
   <stop offset="0" style="stop-opacity:1; stop-color:#FF0743"/>
   <stop offset="0.501961" style="stop-opacity:1; stop-color:#FE053B"/>
   <stop offset="0.760784" style="stop-opacity:1; stop-color:#FD604C"/>
   <stop offset="1" style="stop-opacity:1; stop-color:#FF3B49"/>
  </linearGradient>
  <linearGradient id="id1" gradientUnits="userSpaceOnUse" xlink:href="#id0" x1="20.63" y1="33.19" x2="80.97" y2="33.19">
  </linearGradient>
 </defs>
 <g id="Katman_x0020_1">
  <metadata id="CorelCorpID_0Corel-Layer"/>
  <path class="fil0" d="M7.38 97.51c-1.64,0 -3.05,-0.28 -4.22,-0.84 -1.16,-0.56 -2.22,-1.41 -3.16,-2.53l2.6 -2.6c0.61,0.79 1.31,1.4 2.1,1.83 0.78,0.44 1.75,0.65 2.88,0.65 1.04,0 1.86,-0.2 2.46,-0.61 0.6,-0.41 0.9,-0.97 0.9,-1.68 0,-0.62 -0.17,-1.12 -0.52,-1.5 -0.35,-0.4 -0.8,-0.73 -1.37,-0.99 -0.57,-0.27 -1.2,-0.51 -1.89,-0.74 -0.68,-0.22 -1.37,-0.48 -2.05,-0.77 -0.69,-0.29 -1.31,-0.66 -1.88,-1.1 -0.57,-0.43 -1.03,-0.99 -1.38,-1.68 -0.35,-0.68 -0.52,-1.54 -0.52,-2.58 0,-1.23 0.3,-2.28 0.9,-3.16 0.6,-0.87 1.42,-1.53 2.47,-2 1.04,-0.46 2.22,-0.69 3.54,-0.69 1.39,0 2.64,0.26 3.76,0.77 1.12,0.52 2.04,1.19 2.75,2.03l-2.61 2.6c-0.59,-0.65 -1.21,-1.13 -1.84,-1.44 -0.63,-0.32 -1.34,-0.47 -2.14,-0.47 -0.9,0 -1.61,0.17 -2.13,0.53 -0.52,0.35 -0.77,0.85 -0.77,1.49 0,0.57 0.17,1.03 0.52,1.38 0.35,0.34 0.81,0.64 1.38,0.89 0.57,0.25 1.19,0.49 1.88,0.72 0.69,0.23 1.37,0.5 2.05,0.8 0.69,0.29 1.31,0.67 1.88,1.14 0.57,0.46 1.03,1.05 1.38,1.77 0.35,0.72 0.52,1.62 0.52,2.69 0,1.89 -0.66,3.38 -2,4.46 -1.34,1.09 -3.17,1.63 -5.49,1.63zm74.56 -13.97l0 0c0.21,0.1 0.42,0.21 0.63,0.32 1.13,0.64 2.02,1.51 2.68,2.61 0.66,1.1 1,2.33 1,3.71 0,1.37 -0.34,2.61 -0.99,3.72 -0.67,1.11 -1.56,1.99 -2.69,2.64 -1.13,0.65 -2.41,0.97 -3.83,0.97 -1.4,0 -2.67,-0.32 -3.8,-0.97 -1.14,-0.65 -2.03,-1.53 -2.7,-2.64 -0.66,-1.11 -0.99,-2.35 -0.99,-3.72 0,-1.38 0.33,-2.61 0.99,-3.7 0.66,-1.09 1.55,-1.96 2.69,-2.61 1.13,-0.65 2.4,-0.97 3.81,-0.97 0.26,0 0.51,0.01 0.77,0.03l0.02 -0.04c0.85,0.08 1.67,0.31 2.41,0.65zm-1.78 3.17c-0.63,1.19 -0.94,2.09 -0.94,2.94 0,1 0.44,2.08 1.32,3.64l0.11 0.18c0.53,-0.32 0.95,-0.76 1.25,-1.33 0.3,-0.57 0.45,-1.22 0.45,-1.96 0,-0.73 -0.15,-1.38 -0.47,-1.94 -0.31,-0.55 -0.73,-0.99 -1.27,-1.31 -0.14,-0.09 -0.29,-0.16 -0.45,-0.22zm-2.03 7.21c-0.89,-1.66 -1.34,-2.93 -1.34,-4.27 0,-0.98 0.24,-1.92 0.71,-3.01 -0.22,0.08 -0.43,0.18 -0.63,0.29 -0.54,0.32 -0.97,0.76 -1.27,1.32 -0.31,0.56 -0.46,1.21 -0.46,1.94 0,0.73 0.15,1.38 0.46,1.95 0.3,0.58 0.73,1.02 1.27,1.34 0.38,0.22 0.8,0.37 1.26,0.44zm-53.99 3.59c-1.46,0 -2.76,-0.31 -3.91,-0.94 -1.15,-0.63 -2.05,-1.5 -2.71,-2.61 -0.67,-1.11 -1,-2.36 -1,-3.75 0,-1.4 0.32,-2.64 0.98,-3.74 0.64,-1.1 1.53,-1.97 2.65,-2.61 1.12,-0.64 2.37,-0.96 3.74,-0.96 1.35,0 2.53,0.3 3.57,0.9 1.02,0.6 1.84,1.43 2.43,2.48 0.59,1.06 0.88,2.26 0.88,3.61 0,0.24 -0.01,0.49 -0.04,0.76 -0.03,0.26 -0.08,0.55 -0.15,0.87l-11.78 0.02 0 -2.82 10.01 -0.02 -1.55 1.16c-0.03,-0.83 -0.17,-1.52 -0.44,-2.08 -0.26,-0.56 -0.64,-0.99 -1.13,-1.28 -0.49,-0.3 -1.09,-0.44 -1.81,-0.44 -0.75,0 -1.41,0.16 -1.97,0.5 -0.55,0.33 -0.98,0.8 -1.28,1.41 -0.31,0.61 -0.46,1.33 -0.46,2.18 0,0.85 0.16,1.59 0.49,2.21 0.32,0.63 0.78,1.11 1.37,1.45 0.59,0.33 1.29,0.5 2.09,0.5 0.7,0 1.35,-0.12 1.93,-0.37 0.59,-0.24 1.09,-0.61 1.52,-1.09l2.23 2.25c-0.69,0.79 -1.52,1.4 -2.49,1.8 -0.98,0.41 -2.03,0.61 -3.17,0.61zm18.4 -0.3l0 -8.03c0,-0.83 -0.26,-1.51 -0.79,-2.04 -0.52,-0.52 -1.18,-0.79 -2,-0.79 -0.55,0 -1.04,0.13 -1.47,0.36 -0.42,0.24 -0.75,0.57 -1,1 -0.23,0.43 -0.35,0.92 -0.35,1.47l-1.49 -0.77c0,-1.08 0.24,-2.04 0.71,-2.86 0.48,-0.82 1.14,-1.47 1.98,-1.94 0.84,-0.46 1.79,-0.7 2.85,-0.7 1.03,0 1.95,0.26 2.76,0.77 0.81,0.51 1.45,1.18 1.91,2.01 0.47,0.82 0.7,1.71 0.7,2.65l0 8.87 -3.81 0zm-9.43 0l0 -14.01 3.82 0 0 14.01 -3.82 0zm18.17 0l0 -19.82 3.81 0 0 19.82 -3.81 0zm-3.26 -10.67l0 -3.34 10.33 0 0 3.34 -10.33 0zm12.46 10.67l0 -14.01 3.82 0 0 14.01 -3.82 0zm3.82 -7.74l-1.49 -1c0.19,-1.7 0.69,-3.06 1.52,-4.06 0.84,-1 2.03,-1.5 3.58,-1.5 0.69,0 1.3,0.11 1.84,0.34 0.54,0.23 1.03,0.59 1.46,1.08l-2.36 2.74c-0.23,-0.24 -0.49,-0.42 -0.78,-0.53 -0.3,-0.11 -0.64,-0.17 -1.03,-0.17 -0.82,0 -1.47,0.25 -1.98,0.76 -0.51,0.5 -0.76,1.29 -0.76,2.34zm28.36 7.85l-5.86 -14.12 4.14 0 3.87 10.78 -1.39 0 4.03 -10.78 4.16 0 -6.25 14.12 -2.7 0zm-3.88 5.76l4.28 -9.02 2.3 3.26 -2.54 5.76 -4.04 0z"/>
  <path class="fil1" d="M69.67 10.21c-2.7,-1.34 -5.69,-2.4 -8.88,-3.11 -3.12,-0.69 -6.47,-1.07 -9.98,-1.07 -3.52,0 -6.87,0.38 -9.99,1.07 -3.15,0.71 -6.11,1.75 -8.79,3.07l-0.24 0.12c-2.22,1.1 -3.35,1.68 -4.22,3.1 -0.43,0.69 -0.65,1.4 -0.77,2.3 -0.13,1.06 -0.13,2.61 -0.13,4.67l0 10.53c0,7.72 3.1,13.74 7.09,18.3 4.1,4.67 9.18,7.86 12.91,9.78 0.98,0.5 1.71,0.88 2.37,1.11 0.5,0.17 1.03,0.26 1.77,0.26 1.47,0 2.36,-0.46 4.13,-1.37 3.73,-1.92 8.81,-5.11 12.91,-9.78 3.99,-4.56 7.09,-10.58 7.09,-18.3l0 -10.53c0,-3.68 0,-5.53 -0.9,-6.97 -0.89,-1.45 -2.04,-2.02 -4.34,-3.16l-0.03 -0.02zm-7.59 -8.98c3.69,0.82 7.12,2.03 10.18,3.54l0.26 0.12c3.21,1.6 4.85,2.44 6.64,5.34 1.81,2.93 1.81,5.33 1.81,10.13l0 10.53c0,9.42 -3.75,16.73 -8.59,22.26 -4.73,5.39 -10.48,9.01 -14.68,11.17 -2.66,1.37 -3.99,2.05 -6.89,2.05 -1.46,0 -2.58,-0.19 -3.73,-0.59 -1,-0.34 -1.93,-0.82 -3.17,-1.46 -4.2,-2.16 -9.95,-5.78 -14.68,-11.17 -4.84,-5.53 -8.6,-12.84 -8.6,-22.26l0 -10.53c0,-2.18 0,-3.81 0.21,-5.42 0.22,-1.77 0.68,-3.22 1.61,-4.71 1.81,-2.92 3.46,-3.75 6.73,-5.38l0.04 -0.02c3.1,-1.54 6.57,-2.76 10.31,-3.6 3.59,-0.8 7.38,-1.23 11.28,-1.23 3.89,0 7.68,0.43 11.27,1.23z"/>
  <path class="fil2" d="M50.81 27.15c0.83,0 1.58,-0.34 2.13,-0.88 0.54,-0.55 0.88,-1.3 0.88,-2.13 0,-0.84 -0.33,-1.6 -0.87,-2.14l-0.01 -0.01c-0.54,-0.54 -1.3,-0.87 -2.13,-0.87 -0.84,0 -1.59,0.34 -2.14,0.88l-0.12 0.12c-0.47,0.53 -0.76,1.23 -0.76,2.02 0,0.83 0.33,1.59 0.87,2.13l0.01 0.01c0.54,0.54 1.29,0.87 2.14,0.87zm6.39 3.39c-0.94,0.94 -2.09,1.68 -3.38,2.13l0 2.02 1.51 0c1.67,0 3.02,1.36 3.02,3.02 0,1.67 -1.35,3.02 -3.02,3.02l-1.51 0 0 1.51 3.02 0c1.66,0 3.01,1.35 3.01,3.01 0,1.67 -1.35,3.02 -3.01,3.02l-3.02 0c-1.65,0 -3.16,-0.67 -4.25,-1.77l-0.01 -0.01c-1.1,-1.1 -1.77,-2.6 -1.77,-4.25l0 -9.57c-1.28,-0.46 -2.42,-1.19 -3.37,-2.13l-0.01 -0.01c-1.64,-1.65 -2.66,-3.91 -2.66,-6.39 0,-2.39 0.94,-4.57 2.46,-6.19l0.19 -0.21c1.64,-1.64 3.91,-2.65 6.41,-2.65 2.48,0 4.73,1.01 6.37,2.64l0.02 0.01c1.64,1.65 2.65,3.91 2.65,6.4 0,2.49 -1.01,4.76 -2.65,6.4z"/>
 </g>
</svg>
