<?xml version="1.0" encoding="UTF-8"?>
<svg xmlns="http://www.w3.org/2000/svg"
     width="1500px"
     height="1500px"
     viewBox="0 0 2448.05 2448.05"
     version="1.1">

  <g id="Katman_x0020_1">
    <polygon fill="#FF0743" fill-rule="nonzero" points="0,0 2448.05,0 2448.05,2448.05 0,2448.05"/>

    <g id="_105553306293440">
      <path fill="#ffffff" fill-rule="nonzero" d="M1621.16 740.45c-56.89,-28.23 -119.87,-50.5 -187.02,-65.45 -65.5,-14.59 -136.09,-22.49 -210.09,-22.49 -74.02,0 -144.61,7.9 -210.13,22.49 -66.37,14.78 -128.68,36.72 -185.06,64.47l-5.09 2.54c-46.68,23.23 -70.42,35.43 -88.87,65.26 -9.05,14.59 -13.66,29.6 -16.06,48.51 -2.81,22.22 -2.83,54.82 -2.83,98.24l0 221.56c0,162.61 65.21,289.39 149.26,385.2 86.36,98.46 193.24,165.61 271.77,206.01 20.55,10.56 36.01,18.53 49.76,23.25 10.63,3.65 21.79,5.5 37.25,5.5 31.08,0 49.73,-9.6 86.98,-28.75 78.54,-40.4 185.42,-107.55 271.77,-206.01 84.03,-95.79 149.25,-222.59 149.25,-385.2l0 -221.56c0,-77.5 -0.03,-116.29 -18.87,-146.75 -18.82,-30.36 -43.03,-42.43 -91.37,-66.48l-0.65 -0.34zm-159.76 -189.01c77.65,17.28 149.82,42.6 214.31,74.4l5.33 2.67c67.66,33.65 102.06,51.36 139.81,112.28 38.21,61.73 38.21,112.25 38.21,213.23l0 221.56c0,198.27 -79.04,352.34 -180.97,468.53 -99.56,113.51 -220.53,189.76 -309.02,235.29 -55.93,28.76 -83.89,43.16 -145.02,43.16 -30.65,0 -54.27,-4.18 -78.44,-12.46 -21,-7.22 -40.56,-17.33 -66.6,-30.7 -88.5,-45.53 -209.46,-121.76 -309.02,-235.29 -101.94,-116.19 -181,-270.26 -181,-468.53l0 -221.56c0,-45.82 0,-80.22 4.32,-114.13 4.73,-37.2 14.43,-67.66 33.91,-99.1 38.09,-61.52 72.78,-78.94 141.73,-113.24l0.77 -0.41c65.17,-32.4 138.23,-58.18 216.93,-75.7 75.58,-16.83 155.41,-25.95 237.4,-25.95 81.99,0 161.82,9.12 237.35,25.95z"/>

      <path fill="#ffffff" fill-rule="nonzero" d="M1224.05 1096.99c17.52,0 33.41,-7.12 44.88,-18.6 11.48,-11.47 18.58,-27.36 18.58,-44.88 0,-17.67 -7.03,-33.58 -18.34,-44.88l-0.26 -0.27c-11.31,-11.3 -27.22,-18.33 -44.86,-18.33 -17.52,0 -33.43,7.13 -44.91,18.6l-2.54 2.4c-9.96,11.11 -16.06,26.04 -16.06,42.48 0,17.67 7.03,33.58 18.34,44.88l0.26 0.27c11.31,11.3 27.2,18.33 44.91,18.33zm134.7 71.22c-19.88,19.87 -44.14,35.38 -71.19,44.95l0 42.61 31.7 0c35.07,0 63.51,28.44 63.51,63.5 0,35.07 -28.44,63.51 -63.51,63.51l-31.7 0 0 31.73 63.46 0c35.06,0 63.51,28.44 63.51,63.51 0,35.07 -28.45,63.51 -63.51,63.51l-63.49 0c-34.73,0 -66.46,-14.23 -89.52,-37.2l-0.27 -0.27c-23.04,-23.18 -37.2,-54.84 -37.2,-89.52l0 -201.47c-26.83,-9.56 -50.95,-24.96 -70.8,-44.72l-0.27 -0.29c-34.61,-34.68 -55.95,-82.27 -55.95,-134.55 0,-50.21 19.66,-96.08 51.78,-130.26l4.03 -4.44c34.46,-34.46 82.13,-55.8 134.72,-55.8 52.25,0 99.73,21.27 134.27,55.68l0.26 0.27c34.61,34.68 55.95,82.27 55.95,134.55 0,52.59 -21.34,100.26 -55.78,134.7z"/>
    </g>
  </g>
</svg>