<?xml version="1.0" encoding="UTF-8"?>
<!DOCTYPE svg PUBLIC "-//W3C//DTD SVG 1.1//EN" "http://www.w3.org/Graphics/SVG/1.1/DTD/svg11.dtd">
<!-- Creator: CorelDRAW -->
<svg xmlns="http://www.w3.org/2000/svg" xml:space="preserve" width="770px" height="847px" version="1.1" style="shape-rendering:geometricPrecision; text-rendering:geometricPrecision; image-rendering:optimizeQuality; fill-rule:evenodd; clip-rule:evenodd"
viewBox="0 0 52.31 57.54"
 xmlns:xlink="http://www.w3.org/1999/xlink"
 xmlns:xodm="http://www.corel.com/coreldraw/odm/2003">
 <defs>
  <style type="text/css">
   <![CDATA[
    .fil0 {fill:white;fill-rule:nonzero}
   ]]>
  </style>
 </defs>
 <g id="Katman_x0020_1">
  <metadata id="CorelCorpID_0Corel-Layer"/>
  <g id="_105553172896416">
   <path class="fil0" d="M42.51 8.85c-2.34,-1.16 -4.94,-2.08 -7.7,-2.69 -2.7,-0.6 -5.61,-0.93 -8.65,-0.93 -3.05,0 -5.96,0.33 -8.66,0.93 -2.73,0.61 -5.3,1.51 -7.62,2.65l-0.21 0.11c-1.92,0.95 -2.9,1.46 -3.66,2.69 -0.37,0.6 -0.56,1.21 -0.66,1.99 -0.12,0.92 -0.12,2.26 -0.12,4.05l0 9.12c0,6.7 2.69,11.92 6.15,15.87 3.56,4.05 7.96,6.82 11.19,8.48 0.85,0.44 1.48,0.77 2.05,0.96 0.44,0.15 0.9,0.23 1.54,0.23 1.28,0 2.04,-0.4 3.58,-1.19 3.23,-1.66 7.63,-4.43 11.19,-8.48 3.46,-3.95 6.15,-9.17 6.15,-15.87l0 -9.12c0,-3.19 0,-4.79 -0.78,-6.04 -0.77,-1.26 -1.77,-1.75 -3.76,-2.74l-0.03 -0.02zm-6.58 -7.78c3.2,0.71 6.17,1.75 8.83,3.06l0.22 0.11c2.78,1.39 4.2,2.12 5.76,4.63 1.57,2.54 1.57,4.62 1.57,8.78l0 9.12c0,8.17 -3.26,14.52 -7.45,19.3 -4.1,4.68 -9.09,7.82 -12.73,9.69 -2.31,1.19 -3.46,1.78 -5.97,1.78 -1.27,0 -2.24,-0.17 -3.23,-0.51 -0.87,-0.3 -1.68,-0.72 -2.75,-1.27 -3.64,-1.87 -8.63,-5.01 -12.73,-9.69 -4.19,-4.78 -7.45,-11.13 -7.45,-19.3l0 -9.12c0,-1.89 0,-3.3 0.18,-4.7 0.19,-1.53 0.59,-2.79 1.39,-4.08 1.57,-2.54 3,-3.25 5.84,-4.67l0.03 -0.01c2.69,-1.34 5.7,-2.4 8.94,-3.12 3.11,-0.69 6.4,-1.07 9.78,-1.07 3.37,0 6.66,0.38 9.77,1.07z"/>
   <path class="fil0" d="M26.16 23.54c0.72,0 1.37,-0.3 1.84,-0.77 0.48,-0.47 0.77,-1.13 0.77,-1.85 0,-0.72 -0.29,-1.38 -0.76,-1.85l-0.01 -0.01c-0.46,-0.46 -1.12,-0.75 -1.84,-0.75 -0.73,0 -1.38,0.29 -1.85,0.76l-0.11 0.1c-0.41,0.46 -0.66,1.08 -0.66,1.75 0,0.73 0.29,1.39 0.76,1.85l0.01 0.01c0.46,0.47 1.12,0.76 1.85,0.76zm5.54 2.93c-0.82,0.82 -1.81,1.46 -2.93,1.85l0 1.76 1.31 0c1.44,0 2.61,1.17 2.61,2.61 0,1.45 -1.17,2.62 -2.61,2.62l-1.31 0 0 1.31 2.61 0c1.45,0 2.62,1.17 2.62,2.61 0,1.45 -1.17,2.62 -2.62,2.62l-2.61 0c-1.43,0 -2.74,-0.59 -3.69,-1.54l-0.01 -0.01c-0.95,-0.95 -1.53,-2.26 -1.53,-3.68l0 -8.3c-1.11,-0.4 -2.1,-1.03 -2.92,-1.84l-0.01 -0.02c-1.42,-1.42 -2.3,-3.38 -2.3,-5.54 0,-2.06 0.81,-3.95 2.13,-5.36l0.17 -0.18c1.42,-1.42 3.38,-2.3 5.55,-2.3 2.15,0 4.1,0.87 5.53,2.29l0.01 0.01c1.42,1.43 2.3,3.39 2.3,5.54 0,2.17 -0.88,4.13 -2.3,5.55z"/>
  </g>
 </g>
</svg>
