<?xml version="1.0" encoding="UTF-8" standalone="yes"?>
<svg width="1500px" height="1500px" viewBox="0 0 420.21 420.21" version="1.2" baseProfile="tiny-ps" xmlns="http://www.w3.org/2000/svg">
  <title>bimi-svg-tiny-12-ps</title>
  <g id="Katman_x0020_1">
    <polygon fill="#ffffff" points="0,0 420.21,0 420.21,420.21 0,420.21"/>
    <g id="_105553305018560">
      <path fill="#FF0743" fill-rule="nonzero" d="M291.13 111.44c-11.6,-5.76 -24.45,-10.3 -38.15,-13.35 -13.37,-2.98 -27.77,-4.59 -42.87,-4.59 -15.1,0 -29.5,1.61 -42.87,4.59 -13.54,3.02 -26.26,7.49 -37.76,13.15l-1.04 0.52c-9.52,4.74 -14.36,7.23 -18.13,13.32 -1.85,2.97 -2.79,6.03 -3.28,9.89 -0.57,4.54 -0.57,11.19 -0.57,20.05l0 45.2c0,33.18 13.3,59.05 30.45,78.59 17.62,20.09 39.43,33.79 55.45,42.04 4.19,2.15 7.35,3.78 10.15,4.74 2.17,0.75 4.45,1.12 7.6,1.12 6.34,0 10.15,-1.96 17.75,-5.86 16.02,-8.25 37.83,-21.95 55.45,-42.04 17.14,-19.54 30.45,-45.41 30.45,-78.59l0 -45.2c0,-15.82 -0.01,-23.73 -3.85,-29.94 -3.84,-6.2 -8.78,-8.66 -18.64,-13.57l-0.14 -0.07zm-32.59 -38.56c15.84,3.53 30.57,8.69 43.72,15.18l1.09 0.54c13.81,6.87 20.82,10.48 28.53,22.91 7.79,12.6 7.79,22.91 7.79,43.51l0 45.2c0,40.46 -16.12,71.89 -36.92,95.6 -20.31,23.15 -45,38.71 -63.05,48 -11.41,5.87 -17.12,8.81 -29.59,8.81 -6.25,0 -11.07,-0.85 -16,-2.54 -4.29,-1.48 -8.28,-3.54 -13.59,-6.27 -18.06,-9.29 -42.74,-24.84 -63.05,-48 -20.8,-23.71 -36.93,-55.14 -36.93,-95.6l0 -45.2c0,-9.35 0,-16.37 0.88,-23.29 0.97,-7.59 2.95,-13.8 6.92,-20.22 7.77,-12.55 14.85,-16.1 28.92,-23.1l0.16 -0.09c13.29,-6.61 28.2,-11.87 44.25,-15.44 15.43,-3.43 31.71,-5.29 48.44,-5.29 16.73,0 33.02,1.86 48.43,5.29z"/>
      <path fill="#FF0743" fill-rule="nonzero" d="M210.11 185.91c3.58,0 6.82,-1.45 9.16,-3.8 2.34,-2.34 3.79,-5.58 3.79,-9.15 0,-3.61 -1.44,-6.85 -3.74,-9.16l-0.06 -0.05c-2.3,-2.31 -5.55,-3.75 -9.15,-3.75 -3.57,0 -6.82,1.46 -9.16,3.8l-0.52 0.49c-2.03,2.27 -3.28,5.31 -3.28,8.67 0,3.6 1.44,6.85 3.75,9.15l0.05 0.06c2.31,2.31 5.55,3.74 9.16,3.74zm27.48 14.53c-4.05,4.05 -9,7.22 -14.52,9.17l0 8.69 6.47 0c7.15,0 12.96,5.81 12.96,12.96 0,7.16 -5.81,12.96 -12.96,12.96l-6.47 0 0 6.47 12.95 0c7.15,0 12.95,5.81 12.95,12.96 0,7.15 -5.8,12.96 -12.95,12.96l-12.96 0c-7.08,0 -13.56,-2.91 -18.26,-7.59l-0.06 -0.06c-4.7,-4.73 -7.59,-11.19 -7.59,-18.26l0 -41.11c-5.47,-1.95 -10.39,-5.09 -14.44,-9.12l-0.06 -0.06c-7.06,-7.08 -11.41,-16.79 -11.41,-27.45 0,-10.25 4.01,-19.61 10.56,-26.58l0.82 -0.9c7.04,-7.04 16.76,-11.39 27.49,-11.39 10.66,0 20.35,4.34 27.4,11.36l0.05 0.05c7.06,7.08 11.41,16.79 11.41,27.46 0,10.73 -4.35,20.45 -11.38,27.48z"/>
    </g>
  </g>
</svg>